<?xml version="1.0" encoding="UTF-8"?>
<!DOCTYPE svg PUBLIC "-//W3C//DTD SVG 1.1//EN" "http://www.w3.org/Graphics/SVG/1.1/DTD/svg11.dtd">
<!-- Creator: CorelDRAW -->
<svg xmlns="http://www.w3.org/2000/svg" xml:space="preserve" width="2048px" height="2048px" style="shape-rendering:geometricPrecision; text-rendering:geometricPrecision; image-rendering:optimizeQuality; fill-rule:evenodd; clip-rule:evenodd"
viewBox="0 0 2048 2048"
 xmlns:xlink="http://www.w3.org/1999/xlink">
 <defs>
  <style type="text/css">
   <![CDATA[
    .fil1 {fill:none}
    .fil0 {fill:#424242;fill-rule:nonzero}
   ]]>
  </style>
 </defs>
 <g id="Layer_x0020_1">
  <metadata id="CorelCorpID_0Corel-Layer"/>
  <path class="fil0" d="M1024 255.999c68.0256,0 129.615,27.7205 174.197,72.5339 44.5807,44.8134 72.1571,106.723 72.1571,175.104 0,68.3812 -27.5764,130.292 -72.1571,175.106 -44.5807,44.8134 -106.171,72.5327 -174.197,72.5327 -68.0268,0 -129.617,-27.7193 -174.199,-72.5327 -44.5807,-44.8134 -72.1571,-106.724 -72.1571,-175.106 0,-68.3812 27.5764,-130.291 72.1571,-175.104 44.5819,-44.8134 106.172,-72.5339 174.199,-72.5339zm188.94 307.768c-36.613,-12.1169 -69.8894,-31.7032 -98.0009,-57.1063 -19.4988,-17.6221 -36.4973,-38.0516 -50.3882,-60.7394 -15.7536,22.754 -102.304,95.7414 -111.357,78.8008 -0.0956694,-0.12874 6.85985,-47.7815 6.36851,-57.0768 -8.61261,11.9398 -18.15,23.1567 -28.5154,33.5516 -26.6977,26.7744 -58.9099,48.0508 -94.9028,62.0859 -0.440552,0.17126 -0.882284,0.327166 -1.3252,0.472441 9.70394,30.8847 26.6847,58.5225 48.9201,80.8737 35.8937,36.0792 85.4847,58.3973 140.261,58.3973 54.776,0 104.367,-22.3181 140.26,-58.3973 22.2154,-22.3323 39.1866,-49.9394 48.8941,-80.7922 -0.0708662,-0.0236221 -0.142913,-0.046063 -0.21378,-0.0696851z"/>
  <path class="fil0" d="M930.453 1287.98c0,-3.00236 -0.53504,-5.87835 -1.51299,-8.53347l-74.9741 0c-0.977954,2.65512 -1.51299,5.53111 -1.51299,8.53347 0,121.598 0,286.625 0,438.379 -16.461,0 -32.9233,16.8862 -49.3843,16.8862 -13.2543,0 -24,10.9158 -24,24.3803 0,13.4634 10.7457,24.3803 24,24.3803l73.3843 0c13.2543,0 24,-10.9169 24,-24.3803l0 -202.873 30 -276.773z"/>
  <path class="fil0" d="M1117.55 1287.98c0,-3.00236 0.53504,-5.87835 1.51299,-8.53347l74.9741 0c0.977954,2.65512 1.51299,5.53111 1.51299,8.53347 0,151.755 0,287.805 0,439.559 16.461,0 32.9233,15.7063 49.3843,15.7063 13.2543,0 24,10.9158 24,24.3803 0,13.4634 -10.7457,24.3803 -24,24.3803l-73.3843 0c-13.2543,0 -24,-10.9169 -24,-24.3803l0 -202.873 -30 -276.773z"/>
  <path class="fil0" d="M1143.75 832.416c32.0315,26.9835 55.8059,65.0304 64.3335,110.543l106.221 566.887c0.519685,1.97362 0.797245,4.04646 0.797245,6.18426 0,13.324 -10.7457,24.1252 -24,24.1252l-533.696 0c-1.59449,0.0259843 -3.21496,-0.10748 -4.8437,-0.415748 -13.0264,-2.45906 -21.6012,-15.0709 -19.154,-28.1646l0.0578741 0.0106299 105.867 -566.236c8.60434,-46.0229 32.4449,-84.7264 64.6477,-112.218 33.5032,-28.5992 76.0914,-45.078 120.067,-45.078 43.6548,0 86.2135,16.1528 119.701,44.3622z"/>
  <path class="fil0" d="M1294.96 1193.04c0,13.324 10.7457,24.1252 24,24.1252 13.2543,0 24,-10.8012 24,-24.1252l0 -210.329c0,-56.3138 -37.6323,-106.234 -98.4709,-141.415 -56.8902,-32.8961 -134.867,-53.2477 -220.439,-53.2477 -85.5721,0 -163.549,20.3516 -220.439,53.2477 -60.8386,35.1803 -98.4698,85.0997 -98.4698,141.415l0 210.329c0,13.324 10.7457,24.1252 24,24.1252 13.2543,0 24,-10.8012 24,-24.1252l0 -180.173c0,-37.8685 28.3878,-73.2213 74.2831,-99.7607 49.8426,-28.8225 119.325,-46.6512 196.625,-46.6512 77.3008,0 146.783,17.8288 196.625,46.6512 45.8953,26.5394 74.2843,61.8922 74.2843,99.7607l0 180.173z"/>
  <path class="fil0" d="M763.244 422.498c0.388583,0.233858 0.785434,0.459449 1.19055,0.673229l30.8032 16.2827c11.7012,6.19252 26.1839,1.67835 32.3445,-10.0831 6.16063,-11.7626 1.67008,-26.3209 -10.0311,-32.5134l-29.9988 -15.8563c-11.9823,-26.9445 -29.2252,-49.0418 -48.5847,-63.7252 -24.4914,-18.574 -52.6217,-25.8118 -79.2508,-17.4945 -26.6693,8.3315 -45.7949,30.365 -55.5189,59.6776 -7.42678,22.3866 -1.00158,103.074 11.7366,108.307 9.13465,3.33425 33.9827,-26.1969 49.6087,-40.7351 7.9193,-7.3689 17.4449,-13.0606 28.2815,-16.4445 10.8224,-3.38032 21.9414,-4.1067 32.7544,-2.52756 10.852,1.58386 21.4122,5.50867 31.0866,11.4236 1.71378,1.2626 3.59174,2.27599 5.57835,3.01536z"/>
  <path class="fil0" d="M1284.76 422.498c-0.388583,0.233858 -0.785434,0.459449 -1.19055,0.673229l-30.8032 16.2827c-11.7012,6.19252 -26.1839,1.67835 -32.3445,-10.0831 -6.16063,-11.7626 -1.67008,-26.3209 10.0311,-32.5134l29.9988 -15.8563c11.9823,-26.9445 29.2252,-49.0418 48.5847,-63.7252 24.4914,-18.574 52.6217,-25.8118 79.2508,-17.4945 26.6693,8.3315 45.7949,30.365 55.5189,59.6776 7.42678,22.3866 -5.24882,106.98 -11.7366,108.307 -19.1339,-6.82323 -33.9827,-26.1969 -49.6087,-40.7351 -7.9193,-7.3689 -17.4449,-13.0606 -28.2815,-16.4445 -10.8224,-3.38032 -21.9414,-4.1067 -32.7544,-2.52756 -10.852,1.58386 -21.4122,5.50867 -31.0866,11.4236 -1.71378,1.2626 -3.59174,2.27599 -5.57835,3.01536z"/>
 </g>
 <rect class="fil1" width="2048" height="2048"/>
</svg>
