<svg xmlns="http://www.w3.org/2000/svg" viewBox="0 0 64 64"><title>Artboard-16</title><g id="Hand_money" data-name="Hand money"><path d="M58.88,32.12a3.93,3.93,0,0,0-5.42,0L42.59,43H27a1,1,0,0,1,0-2H37.5a3.5,3.5,0,0,0,0-7H17a1.033,1.033,0,0,0-.71.29L9.41,41.17,21.83,53.59,24.41,51H45a1.033,1.033,0,0,0,.71-.29L58.88,37.54a3.839,3.839,0,0,0,0-5.42Z" style="fill:#232328"/><path d="M5.707,40.293a1,1,0,0,0-1.414,0l-3,3a1,1,0,0,0,0,1.414l17,17a1,1,0,0,0,1.414,0l3-3a1,1,0,0,0,0-1.414Z" style="fill:#232328"/><path d="M.29,48.29A1.033,1.033,0,0,0,0,49V62a1,1,0,0,0,1,1H14a1.033,1.033,0,0,0,.71-.29l.88-.88L1.17,47.41Z" style="fill:#232328"/><path d="M63,1H19a1,1,0,0,0-1,1V28a1,1,0,0,0,1,1H63a1,1,0,0,0,1-1V2A1,1,0,0,0,63,1ZM60,19a1,1,0,0,1-1,1,4,4,0,0,0-4,4,1,1,0,0,1-1,1H28a1,1,0,0,1-1-1,4,4,0,0,0-4-4,1,1,0,0,1-1-1V11a1,1,0,0,1,1-1,4,4,0,0,0,4-4,1,1,0,0,1,1-1H54a1,1,0,0,1,1,1,4,4,0,0,0,4,4,1,1,0,0,1,1,1Z" style="fill:#232328"/><path d="M53.083,7H28.917A6.017,6.017,0,0,1,24,11.917v6.166A6.017,6.017,0,0,1,28.917,23H53.083A6.017,6.017,0,0,1,58,18.083V11.917A6.017,6.017,0,0,1,53.083,7ZM42,20a1,1,0,0,1-2,0H39a1,1,0,0,1,0-2h1V16a3,3,0,0,1,0-6,1,1,0,0,1,2,0h1a1,1,0,0,1,0,2H42v2a3,3,0,0,1,0,6Z" style="fill:#232328"/><path d="M42,16v2a1,1,0,0,0,0-2Z" style="fill:#232328"/><path d="M39,13a1,1,0,0,0,1,1V12A1,1,0,0,0,39,13Z" style="fill:#232328"/></g></svg>